<svg id="Completion_icon_Master_-_Dark" data-name="Completion icon Master - Dark" xmlns="http://www.w3.org/2000/svg" width="60" height="64.002" viewBox="0 0 60 64.002">
  <g id="streamline-icon-document-checklist-pile_120x120" data-name="streamline-icon-document-checklist-pile@120x120" transform="translate(-30 -29.605)">
    <path id="Path_11131" data-name="Path 11131" d="M42.974,100.371c0,1.61,8.059,2.915,18,2.915s18-1.305,18-2.915-8.059-2.915-18-2.915S42.974,98.761,42.974,100.371Z" transform="translate(-0.975 -9.678)" fill="#ffd5ac"/>
    <g id="streamline-icon-skincare-certified_120x120" data-name="streamline-icon-skincare-certified@120x120" transform="translate(-25.521 -21.415)">
      <path id="Path_11161" data-name="Path 11161" d="M55.522,81.02a30,30,0,1,0,30-30,30,30,0,0,0-30,30Z" transform="translate(0 0)" fill="#ff9631"/>
      <g id="Group_15431" data-name="Group 15431" transform="translate(-19.282 -236.968)">
        <path id="Path_13588" data-name="Path 13588" d="M24.034,51.961A2.3,2.3,0,0,1,22,48.574L36.582,21.235a2.3,2.3,0,0,1,4.062,0L55.223,48.574a2.3,2.3,0,0,1-2.031,3.386Z" transform="translate(66 280)" fill="#fff"/>
        <path id="Path_13589" data-name="Path 13589" d="M24.034,51.961A2.3,2.3,0,0,1,22,48.574L36.582,21.235a2.3,2.3,0,0,1,4.062,0L55.223,48.574a2.3,2.3,0,0,1-2.031,3.386Z" transform="translate(66 280)" fill="none"/>
        <path id="Path_13590" data-name="Path 13590" d="M32.056,34.864a.767.767,0,0,1-1.487,0c-1.949-7.684-1.816-7.145-1.823-7.228a2.573,2.573,0,1,1,5.133,0C33.872,27.72,34.008,27.175,32.056,34.864Z" transform="translate(73.3 285.073)" fill="#ff9631"/>
        <path id="Path_13591" data-name="Path 13591" d="M30.971,35.5a1.9,1.9,0,1,1,1.9-1.9,1.9,1.9,0,0,1-1.9,1.9Z" transform="translate(73.642 292.166)" fill="#ff9631"/>
      </g>
    </g>
  </g>
</svg>
