<svg id="Completion_icon_Master_-_Light" data-name="Completion icon Master - Light" xmlns="http://www.w3.org/2000/svg" width="60" height="64.003" viewBox="0 0 60 64.003">
  <path id="Path_11131" data-name="Path 11131" d="M42.974,100.371c0,1.61,8.059,2.915,18,2.915s18-1.305,18-2.915-8.059-2.915-18-2.915S42.974,98.761,42.974,100.371Z" transform="translate(-30.975 -39.283)" fill="#00485a"/>
  <g id="streamline-icon-skincare-certified_120x120" data-name="streamline-icon-skincare-certified@120x120" transform="translate(-55.522 -51.02)">
    <path id="Path_11161" data-name="Path 11161" d="M55.522,81.02a30,30,0,1,0,30-30,30,30,0,0,0-30,30Z" transform="translate(0 0)" fill="#33c4e8"/>
    <path id="Path_11162" data-name="Path 11162" d="M76.037,92.3A4.257,4.257,0,0,1,72.982,91l-8.644-8.822a4.475,4.475,0,0,1,0-6.238,4.259,4.259,0,0,1,6.111,0l5.588,5.7L93.63,63.686a4.259,4.259,0,0,1,6.111,0,4.476,4.476,0,0,1,0,6.238L79.092,91A4.257,4.257,0,0,1,76.037,92.3Z" transform="translate(3.291 4.54)" fill="#0e1622"/>
  </g>
</svg>
