<svg id="Completion_icon_Master_-_Dark" data-name="Completion icon Master - Dark" xmlns="http://www.w3.org/2000/svg" width="60" height="64.002" viewBox="0 0 60 64.002">
  <g id="streamline-icon-document-checklist-pile_120x120" data-name="streamline-icon-document-checklist-pile@120x120" transform="translate(-30 -29.605)">
    <path id="Path_11131" data-name="Path 11131" d="M42.974,100.371c0,1.61,8.059,2.915,18,2.915s18-1.305,18-2.915-8.059-2.915-18-2.915S42.974,98.761,42.974,100.371Z" transform="translate(-0.975 -9.678)" fill="#fbb4af"/>
    <g id="streamline-icon-skincare-certified_120x120" data-name="streamline-icon-skincare-certified@120x120" transform="translate(-25.521 -21.415)">
      <path id="Path_11161" data-name="Path 11161" d="M55.522,81.02a30,30,0,1,0,30-30,30,30,0,0,0-30,30Z" transform="translate(0 0)" fill="#f44336"/>
      <path id="Path_13592" data-name="Path 13592" d="M54.853,46.476l7.388-7.513a4.394,4.394,0,1,0-6.253-6.156L48.6,40.32l-7.515-7.388a4.394,4.394,0,0,0-6.156,6.263l7.515,7.388-7.4,7.513a4.394,4.394,0,1,0,6.261,6.158L48.7,52.739l7.515,7.388a4.394,4.394,0,0,0,6.149-6.263Z" transform="translate(36.846 34.519)" fill="#fff"/>
    </g>
  </g>
</svg>
